<svg preserveAspectRatio="none" overflow="visible" style="display: block;" width="35.5" height="27.5" viewBox="0 0 35.5 27.5" fill="none" xmlns="http://www.w3.org/2000/svg">
<path id="Vector" d="M34.75 4.65V22.85C34.75 23.8843 34.3367 24.8763 33.601 25.6077C32.8652 26.3391 31.8674 26.75 30.8269 26.75H4.67308C3.63261 26.75 2.63476 26.3391 1.89904 25.6077C1.16332 24.8763 0.75 23.8843 0.75 22.85V4.65M0.75 4.65V5.07293C0.749926 5.73879 0.92134 6.39357 1.24792 6.97491C1.57449 7.55626 2.04535 8.0448 2.61564 8.394L15.6926 16.3916C16.3112 16.7704 17.0235 16.971 17.75 16.971C18.4765 16.971 19.1888 16.7704 19.8074 16.3916L32.8844 8.39227C33.4547 8.04306 33.9255 7.55452 34.2521 6.97318C34.5787 6.39184 34.7501 5.73705 34.75 5.0712V4.65C34.75 3.61566 34.3367 2.62368 33.601 1.89228C32.8652 1.16089 31.8674 0.75 30.8269 0.75H4.67308C3.63261 0.75 2.63476 1.16089 1.89904 1.89228C1.16332 2.62368 0.75 3.61566 0.75 4.65Z" stroke="white" stroke-width="1.5" stroke-linecap="round" stroke-linejoin="round"/>
</svg>
